<svg height="512" viewBox="0 0 34 34" width="512" xmlns="http://www.w3.org/2000/svg"><g id="Layer_2" fill="rgb(0,0,0)" data-name="Layer 2"><path d="m28 18h5v6h-5z"/><path d="m28.52 1h-.52v7h5v-2.52a4.485 4.485 0 0 0 -4.48-4.48z"/><path d="m28 10h5v6h-5z"/><path d="m1 18h5v6h-5z"/><path d="m1 10h5v6h-5z"/><path d="m28 33h.52a4.485 4.485 0 0 0 4.48-4.48v-2.52h-5z"/><path d="m1 28.52a4.485 4.485 0 0 0 4.48 4.48h.52v-7h-5z"/><path d="m1 5.48v2.52h5v-7h-.52a4.485 4.485 0 0 0 -4.48 4.48z"/><path d="m8 33h18v-32h-18zm3-23a1 1 0 0 1 1.537-.844l11 7a1 1 0 0 1 0 1.688l-11 7a1 1 0 0 1 -1.537-.844z"/><path d="m13 11.821v10.358l8.137-5.179z"/></g></svg>